Coordinates
nRows=124
nColumns=2
inDegrees=yes
endheader
time	ankle_angle_r	
2.57661	 -0.427246	
2.64819	 -0.396729	
2.71976	 -0.435702	
2.79133	 -0.396729	
2.8629	 -0.372680	
2.93448	 -0.450878	
3.00605	 -0.408337	
3.07762	 -0.411987	
3.14919	 -0.366211	
3.22077	 -0.453489	
3.29234	 -0.451470	
3.36391	 -0.356829	
3.43548	 -0.391267	
3.50706	 -0.381470	
3.57863	 -0.421931	
3.6502	 -0.331480	
3.72177	 -0.400526	
3.79335	 -0.356891	
3.86492	 -0.381470	
3.93649	 -0.405632	
4.00806	 -0.355382	
4.07964	 -0.411987	
4.15121	 -0.364910	
4.22278	 -0.350952	
4.29435	 -0.381939	
4.36593	 -0.389073	
4.4375	 -0.404540	
4.50907	 -0.381470	
4.58065	 -0.441309	
4.65222	 -0.442505	
4.72379	 -0.390113	
4.79536	 -0.424803	
4.86694	 -0.402928	
4.93851	 -0.436513	
5.01008	 -0.366211	
5.08165	 -0.436929	
5.15323	 -0.482914	
5.2248	 -0.366211	
5.29637	 -0.361259	
5.36794	 -0.350952	
5.43952	 -0.315899	
5.51109	 -0.283313	
5.58266	 -0.298156	
5.65423	 -0.328257	
5.72581	 -0.308879	
5.79738	 -0.298185	
5.86895	 -0.317147	
5.94052	 -0.366211	
6.0121	 -0.342338	
6.08367	 -0.333030	
6.15524	 -0.325345	
6.22681	 -0.376975	
6.29839	 -0.333654	
6.36996	 -0.320435	
6.44153	 -0.398352	
6.5131	 -0.366211	
6.58468	 -0.305176	
6.65625	 -0.366211	
6.72782	 -0.304385	
6.7994	 -0.366211	
6.87097	 -0.305551	
6.94254	 -0.290251	
7.01411	 -0.381429	
7.08569	 -0.335942	
7.15726	 -0.365297	
7.22883	 -0.320435	
7.3004	 -0.396729	
7.37198	 -0.353114	
7.44355	 -0.303887	
7.51512	 -0.382967	
7.58669	 -0.305176	
7.65827	 -0.354779	
7.72984	 -0.350952	
7.80141	 -0.394399	
7.87298	 -0.384007	
7.94456	 -0.356443	
8.01613	 -0.381470	
8.0877	 -0.399890	
8.15927	 -0.427246	
8.23085	 -0.354530	
8.30242	 -0.358640	
8.37399	 -0.449777	
8.44556	 -0.396729	
8.51714	 -0.401138	
8.58871	 -0.386087	
8.66028	 -0.432072	
8.73185	 -0.406796	
8.80343	 -0.381470	
8.875	 -0.437055	
8.94657	 -0.396729	
9.01815	 -0.399067	
9.08972	 -0.360137	
9.16129	 -0.414683	
9.23286	 -0.436015	
9.30444	 -0.396729	
9.37601	 -0.350952	
9.44758	 -0.327548	
9.51915	 -0.381470	
9.59073	 -0.335494	
9.6623	 -0.350952	
9.73387	 -0.419300	
9.80544	 -0.389624	
9.87702	 -0.373108	
9.94859	 -0.388159	
10.0202	 -0.442505	
10.0917	 -0.405714	
10.1633	 -0.366211	
10.2349	 -0.417844	
10.3065	 -0.396729	
10.378	 -0.437064	
10.4496	 -0.381470	
10.5212	 -0.442505	
10.5927	 -0.462580	
10.6643	 -0.418029	
10.7359	 -0.420789	
10.8075	 -0.396729	
10.879	 -0.431231	
10.9506	 -0.385246	
11.0222	 -0.377901	
11.0937	 -0.433967	
11.1653	 -0.427246	
11.2369	 -0.411987	
11.3085	 -0.371684	
11.38	 -0.439976	
